<svg width="155" height="150" viewBox="0 0 155 150" fill="none" xmlns="http://www.w3.org/2000/svg">
<g clip-path="url(#clip0_438_417)">
<path d="M108.448 149.494C108.286 149.664 108.118 149.832 107.948 150H88.543C88.3835 149.836 88.2261 149.668 88.0686 149.494C88.0623 149.487 88.0559 149.479 88.0495 149.472C85.9413 147.137 84.614 143.742 83.7864 140.161C83.7332 139.944 83.6865 139.725 83.6397 139.504C83.4227 138.498 83.2461 137.481 83.1015 136.473C83.0759 136.298 83.0504 136.124 83.0291 135.949C82.8334 134.501 82.7015 133.075 82.6164 131.737C82.6058 131.565 82.5951 131.397 82.5845 131.229C82.4287 128.565 82.4272 125.894 82.5803 123.23C82.5803 123.23 82.6058 123.23 82.6547 123.232C82.7973 123.239 83.1397 123.254 83.6439 123.283C85.033 123.368 87.6539 123.581 90.7363 124.083C90.9043 124.111 91.0746 124.141 91.2447 124.17C93.8519 124.601 96.4237 125.224 98.9391 126.034C99.0966 126.087 99.2519 126.14 99.4093 126.193L99.4115 126.204L101.341 135.885L102.141 127.268C102.777 127.555 103.396 127.861 103.989 128.189C104.155 128.28 104.317 128.372 104.477 128.465C105.833 129.234 107.065 130.206 108.129 131.346C114.458 138.359 113.103 144.629 108.448 149.494Z" fill="#F2F2F2"/>
<path d="M100.339 137.218L100.675 137.59C104.564 141.942 106.884 145.982 107.599 149.656C107.611 149.709 107.618 149.763 107.63 149.816L107.381 149.863L107.141 149.905C106.412 145.9 103.695 141.759 100.304 137.962C100.196 137.839 100.086 137.713 99.9728 137.591C98.5233 135.997 96.9648 134.467 95.3889 133.036C95.2679 132.925 95.1434 132.813 95.0189 132.701C92.9291 130.824 90.8267 129.125 88.9517 127.694C88.8196 127.592 88.6857 127.492 88.5535 127.393C85.3699 124.983 82.8998 123.386 82.3493 123.036C82.2829 122.992 82.2453 122.969 82.2368 122.963L82.3671 122.755L82.3673 122.751L82.4995 122.542C82.508 122.547 82.6343 122.624 82.8625 122.773C83.7194 123.326 86.0228 124.846 88.8882 127.007C89.017 127.106 89.1509 127.206 89.2829 127.307C90.8057 128.468 92.4713 129.797 94.1532 131.252C94.5763 131.617 94.9888 131.981 95.3908 132.345C95.5172 132.455 95.6417 132.567 95.7627 132.679C97.4664 134.225 98.9917 135.738 100.339 137.218Z" fill="white"/>
<path d="M90.9191 123.67C90.8616 123.809 90.7999 123.947 90.7361 124.083C90.2502 125.135 89.6287 126.118 88.8875 127.008C88.779 127.136 88.6684 127.266 88.5535 127.393C88.2429 127.736 87.9125 128.067 87.5622 128.387C86.1289 129.684 84.4302 130.654 82.5843 131.229C82.5247 131.248 82.4673 131.267 82.4077 131.284C82.4183 131.452 82.429 131.618 82.4396 131.79C82.4992 131.773 82.5567 131.756 82.6162 131.737C84.5748 131.147 86.3776 130.128 87.894 128.755C88.2648 128.42 88.6178 128.065 88.9513 127.693C89.0661 127.568 89.1768 127.438 89.2832 127.308C90.0758 126.356 90.7356 125.3 91.2445 124.17C91.3041 124.034 91.3636 123.898 91.4211 123.76C91.251 123.73 91.0829 123.7 90.9191 123.67Z" fill="white"/>
<path d="M99.0263 125.657C99.0008 125.783 98.9709 125.908 98.9391 126.034C98.3623 128.425 97.1341 130.61 95.3908 132.346C95.2695 132.467 95.1461 132.586 95.0185 132.701C94.9823 132.737 94.9419 132.775 94.9036 132.809C93.3177 134.241 91.4126 135.273 89.347 135.819C87.2815 136.365 85.1153 136.41 83.029 135.949C82.98 135.941 82.9291 135.928 82.8801 135.917C82.9056 136.092 82.9291 136.268 82.9567 136.443C83.0056 136.453 83.0525 136.464 83.1014 136.473C85.2406 136.915 87.454 136.847 89.5622 136.275C91.6703 135.702 93.6139 134.641 95.2354 133.177C95.2865 133.131 95.3397 133.086 95.3886 133.037C95.5163 132.918 95.6397 132.799 95.7631 132.68C97.5471 130.894 98.8088 128.655 99.4114 126.204C99.4433 126.076 99.473 125.949 99.5007 125.821C99.3432 125.766 99.1859 125.711 99.0263 125.657Z" fill="white"/>
<path d="M103.989 127.829C103.991 127.948 103.991 128.07 103.989 128.189C103.954 131.551 102.65 134.775 100.339 137.217C100.22 137.345 100.096 137.468 99.973 137.591C99.8389 137.721 99.7049 137.851 99.5666 137.974C97.4266 139.903 94.7233 141.093 91.8556 141.368C88.9878 141.644 86.1075 140.99 83.6395 139.504C83.5972 139.482 83.556 139.458 83.5161 139.432C83.5672 139.657 83.6182 139.878 83.6736 140.1C83.7118 140.121 83.748 140.142 83.7863 140.161C86.3258 141.577 89.2446 142.163 92.1338 141.838C95.0231 141.512 97.7381 140.29 99.8985 138.345C100.037 138.219 100.175 138.094 100.305 137.962C100.432 137.84 100.554 137.717 100.675 137.589C103.019 135.117 104.372 131.87 104.476 128.465C104.481 128.351 104.483 128.236 104.483 128.121C104.321 128.021 104.155 127.925 103.989 127.829Z" fill="white"/>
<path d="M60.9826 35.2234H23.5878C23.2766 35.223 22.9783 35.0993 22.7582 34.8792C22.5382 34.6592 22.4144 34.3608 22.4141 34.0496V5.65552C22.4144 5.34432 22.5382 5.04596 22.7582 4.8259C22.9783 4.60583 23.2766 4.48204 23.5878 4.48167H69.4881C69.7993 4.48204 70.0976 4.60583 70.3177 4.8259C70.5377 5.04596 70.6615 5.34432 70.6618 5.65552V25.5442C70.6589 28.1104 69.6382 30.5706 67.8237 32.3852C66.0091 34.1998 63.5488 35.2205 60.9826 35.2234Z" fill="white"/>
<path d="M60.9826 35.3298H23.5877C23.2483 35.3294 22.923 35.1944 22.683 34.9544C22.443 34.7144 22.308 34.389 22.3076 34.0496V5.65553C22.308 5.31612 22.443 4.99073 22.683 4.75073C22.9229 4.51073 23.2483 4.37571 23.5877 4.37531H69.488C69.8274 4.37569 70.1528 4.5107 70.3928 4.75071C70.6328 4.99072 70.7678 5.31612 70.7681 5.65553V25.5442C70.7652 28.1386 69.7332 30.6259 67.8987 32.4604C66.0642 34.2949 63.5769 35.3268 60.9826 35.3298V35.3298ZM23.5877 4.80076C23.3611 4.80104 23.1439 4.89119 22.9837 5.05143C22.8234 5.21167 22.7333 5.42892 22.7331 5.65553V34.0496C22.7333 34.2762 22.8235 34.4935 22.9837 34.6537C23.1439 34.8139 23.3611 34.904 23.5877 34.9043H60.9826C63.4641 34.9015 65.8433 33.9144 67.5981 32.1597C69.3528 30.4049 70.3399 28.0258 70.3427 25.5442V5.65553C70.3424 5.42892 70.2523 5.21167 70.0921 5.05143C69.9318 4.89119 69.7146 4.80104 69.488 4.80076H23.5877Z" fill="#CCCCCC"/>
<path d="M60.4148 14.0709H32.6611C32.4063 14.0709 32.162 13.9697 31.9818 13.7895C31.8017 13.6093 31.7004 13.365 31.7004 13.1102C31.7004 12.8554 31.8017 12.611 31.9818 12.4309C32.162 12.2507 32.4063 12.1495 32.6611 12.1495H60.4148C60.6693 12.1499 60.9133 12.2513 61.0932 12.4314C61.273 12.6115 61.374 12.8556 61.374 13.1102C61.374 13.3647 61.273 13.6089 61.0932 13.789C60.9133 13.9691 60.6693 14.0705 60.4148 14.0709V14.0709Z" fill="#CCCCCC"/>
<path d="M60.4148 20.6891H32.6611C32.4064 20.6891 32.162 20.5878 31.9818 20.4077C31.8017 20.2275 31.7004 19.9831 31.7004 19.7284C31.7004 19.4736 31.8017 19.2292 31.9818 19.049C32.162 18.8689 32.4064 18.7677 32.6611 18.7677H60.4148C60.6696 18.7677 60.9139 18.8689 61.0941 19.049C61.2743 19.2292 61.3755 19.4736 61.3755 19.7284C61.3755 19.9831 61.2743 20.2275 61.0941 20.4077C60.9139 20.5878 60.6696 20.6891 60.4148 20.6891Z" fill="#CCCCCC"/>
<path d="M60.4148 27.4964H32.6611C32.4064 27.4964 32.162 27.3952 31.9818 27.215C31.8017 27.0349 31.7004 26.7905 31.7004 26.5357C31.7004 26.2809 31.8017 26.0366 31.9818 25.8564C32.162 25.6762 32.4064 25.575 32.6611 25.575H60.4148C60.6696 25.575 60.9139 25.6762 61.0941 25.8564C61.2743 26.0366 61.3755 26.2809 61.3755 26.5357C61.3755 26.7905 61.2743 27.0349 61.0941 27.215C60.9139 27.3952 60.6696 27.4964 60.4148 27.4964Z" fill="#CCCCCC"/>
<path d="M69.1435 11.474C72.312 11.474 74.8805 8.90546 74.8805 5.737C74.8805 2.56854 72.312 0 69.1435 0C65.975 0 63.4065 2.56854 63.4065 5.737C63.4065 8.90546 65.975 11.474 69.1435 11.474Z" fill="#2B2E32"/>
<path d="M68.361 8.72284C68.2619 8.72284 68.1642 8.69977 68.0756 8.65545C67.987 8.61114 67.9099 8.54679 67.8505 8.46752L66.2853 6.38064C66.2351 6.31359 66.1985 6.2373 66.1777 6.15612C66.1569 6.07494 66.1523 5.99046 66.1641 5.9075C66.176 5.82454 66.2041 5.74472 66.2468 5.67261C66.2895 5.60051 66.346 5.53751 66.413 5.48723C66.48 5.43696 66.5563 5.40037 66.6375 5.37958C66.7187 5.35878 66.8032 5.35418 66.8861 5.36603C66.9691 5.37789 67.0489 5.40597 67.121 5.44867C67.1931 5.49136 67.2561 5.54785 67.3064 5.61489L68.3304 6.98008L70.9603 3.03523C71.0542 2.89441 71.2002 2.79664 71.3661 2.76345C71.5321 2.73025 71.7045 2.76435 71.8453 2.85824C71.9861 2.95212 72.0839 3.09811 72.1171 3.26407C72.1503 3.43004 72.1162 3.6024 72.0223 3.74322L68.892 8.43865C68.8354 8.52357 68.7592 8.59367 68.6699 8.64309C68.5806 8.6925 68.4807 8.71978 68.3787 8.72264C68.3728 8.72275 68.3669 8.72284 68.361 8.72284Z" fill="white"/>
<path d="M47.1805 59.885H9.78564C7.21945 59.8821 4.75919 58.8614 2.94461 57.0468C1.13004 55.2322 0.10934 52.772 0.106445 50.2058V30.317C0.106811 30.0058 0.230602 29.7074 0.450664 29.4874C0.670725 29.2673 0.969088 29.1435 1.2803 29.1431H47.1805C47.4917 29.1435 47.79 29.2673 48.0101 29.4874C48.2302 29.7074 48.3539 30.0058 48.3543 30.317V58.7111C48.3539 59.0223 48.2302 59.3207 48.0101 59.5408C47.79 59.7608 47.4917 59.8846 47.1805 59.885V59.885Z" fill="white"/>
<path d="M47.1804 59.9913H9.78557C7.19118 59.9884 4.70389 58.9565 2.86938 57.122C1.03487 55.2874 0.00294975 52.8002 0 50.2058V30.317C0.000384555 29.9776 0.135389 29.6522 0.375393 29.4122C0.615398 29.1722 0.940804 29.0372 1.28022 29.0368H47.1804C47.5198 29.0372 47.8452 29.1722 48.0852 29.4122C48.3252 29.6522 48.4602 29.9776 48.4606 30.317V58.7111C48.4602 59.0505 48.3252 59.3759 48.0852 59.616C47.8452 59.856 47.5198 59.991 47.1804 59.9913ZM1.28022 29.4622C1.05361 29.4625 0.836355 29.5526 0.676115 29.7129C0.515876 29.8731 0.425732 30.0904 0.425459 30.317V50.2058C0.428262 52.6874 1.41531 55.0665 3.17007 56.8213C4.92482 58.576 7.30397 59.5631 9.78557 59.5659H47.1804C47.407 59.5656 47.6243 59.4755 47.7845 59.3152C47.9448 59.155 48.0349 58.9377 48.0352 58.7111V30.317C48.0349 30.0904 47.9447 29.8731 47.7845 29.7129C47.6243 29.5526 47.407 29.4625 47.1804 29.4622H1.28022Z" fill="#CCCCCC"/>
<path d="M38.1072 38.7324H10.3535C10.0987 38.7324 9.85437 38.6312 9.6742 38.451C9.49404 38.2708 9.39282 38.0265 9.39282 37.7717C9.39282 37.5169 9.49404 37.2725 9.6742 37.0924C9.85437 36.9122 10.0987 36.811 10.3535 36.811H38.1072C38.362 36.811 38.6063 36.9122 38.7865 37.0924C38.9666 37.2725 39.0679 37.5169 39.0679 37.7717C39.0679 38.0265 38.9666 38.2708 38.7865 38.451C38.6063 38.6312 38.362 38.7324 38.1072 38.7324Z" fill="#CCCCCC"/>
<path d="M38.1072 45.3505H10.3535C10.0987 45.3505 9.85437 45.2493 9.6742 45.0692C9.49404 44.889 9.39282 44.6446 9.39282 44.3898C9.39282 44.135 9.49404 43.8907 9.6742 43.7105C9.85437 43.5304 10.0987 43.4291 10.3535 43.4291H38.1072C38.362 43.4291 38.6063 43.5304 38.7865 43.7105C38.9666 43.8907 39.0679 44.135 39.0679 44.3898C39.0679 44.6446 38.9666 44.889 38.7865 45.0692C38.6063 45.2493 38.362 45.3505 38.1072 45.3505Z" fill="#CCCCCC"/>
<path d="M38.1072 52.1579H10.3535C10.0987 52.1579 9.85437 52.0567 9.6742 51.8765C9.49404 51.6964 9.39282 51.452 9.39282 51.1972C9.39282 50.9424 9.49404 50.6981 9.6742 50.5179C9.85437 50.3377 10.0987 50.2365 10.3535 50.2365H38.1072C38.362 50.2365 38.6063 50.3377 38.7865 50.5179C38.9666 50.6981 39.0679 50.9424 39.0679 51.1972C39.0679 51.452 38.9666 51.6964 38.7865 51.8765C38.6063 52.0567 38.362 52.1579 38.1072 52.1579Z" fill="#CCCCCC"/>
<path d="M47.2324 36.3634C50.4008 36.3634 52.9694 33.7948 52.9694 30.6264C52.9694 27.4579 50.4008 24.8894 47.2324 24.8894C44.0639 24.8894 41.4954 27.4579 41.4954 30.6264C41.4954 33.7948 44.0639 36.3634 47.2324 36.3634Z" fill="#2B2E32"/>
<path d="M46.4498 33.6122C46.3508 33.6122 46.253 33.5892 46.1644 33.5448C46.0758 33.5005 45.9988 33.4362 45.9393 33.3569L44.3742 31.27C44.3239 31.203 44.2873 31.1267 44.2665 31.0455C44.2458 30.9643 44.2411 30.8798 44.253 30.7969C44.2649 30.7139 44.2929 30.6341 44.3356 30.562C44.3783 30.4899 44.4348 30.4269 44.5019 30.3766C44.5689 30.3263 44.6452 30.2897 44.7264 30.269C44.8076 30.2482 44.892 30.2436 44.975 30.2554C45.058 30.2673 45.1378 30.2953 45.2099 30.338C45.282 30.3807 45.345 30.4372 45.3953 30.5043L46.4192 31.8695L49.0492 27.9246C49.1431 27.7838 49.289 27.686 49.455 27.6528C49.621 27.6196 49.7933 27.6537 49.9342 27.7476C50.075 27.8415 50.1728 27.9875 50.206 28.1534C50.2391 28.3194 50.2051 28.4918 50.1112 28.6326L46.9809 33.328C46.9242 33.4129 46.8481 33.4831 46.7588 33.5325C46.6695 33.5819 46.5696 33.6092 46.4676 33.612C46.4617 33.6121 46.4557 33.6122 46.4498 33.6122Z" fill="white"/>
<path d="M93.7733 86.3513H41.4495C38.8833 86.3484 36.423 85.3277 34.6084 83.5131C32.7939 81.6985 31.7732 79.2383 31.7703 76.6721V47.4189C31.7707 47.0177 31.9303 46.6331 32.214 46.3495C32.4976 46.0658 32.8822 45.9062 33.2834 45.9058H93.7733C94.1744 45.9062 94.559 46.0658 94.8427 46.3495C95.1263 46.6331 95.2858 47.0177 95.2863 47.4189V84.8381C95.2858 85.2392 95.1263 85.6238 94.8427 85.9075C94.559 86.1912 94.1744 86.3508 93.7733 86.3513V86.3513Z" fill="white"/>
<path d="M93.7734 86.4577H41.4496C38.8552 86.4547 36.368 85.4228 34.5334 83.5883C32.6989 81.7538 31.667 79.2665 31.6641 76.6721V47.4189C31.6645 46.9895 31.8353 46.5779 32.1389 46.2743C32.4425 45.9707 32.8542 45.7999 33.2835 45.7994H93.7734C94.2028 45.7999 94.6144 45.9707 94.918 46.2743C95.2215 46.5779 95.3923 46.9895 95.3928 47.4189V84.8381C95.3923 85.2675 95.2216 85.6791 94.918 85.9828C94.6144 86.2864 94.2028 86.4572 93.7734 86.4577V86.4577ZM33.2835 46.2249C32.967 46.2252 32.6635 46.3512 32.4396 46.575C32.2158 46.7988 32.0899 47.1023 32.0895 47.4189V76.6721C32.0923 79.1537 33.0794 81.5329 34.8341 83.2876C36.5889 85.0424 38.968 86.0294 41.4496 86.0322H93.7734C94.09 86.0318 94.3935 85.9059 94.6173 85.682C94.8411 85.4582 94.967 85.1547 94.9673 84.8381V47.4189C94.967 47.1023 94.8411 46.7988 94.6173 46.575C94.3934 46.3512 94.09 46.2252 93.7734 46.2249H33.2835Z" fill="#CCCCCC"/>
<path d="M81.8162 58.5091H45.2409C45.0745 58.5093 44.9096 58.4768 44.7558 58.4132C44.6021 58.3497 44.4623 58.2565 44.3446 58.1389C44.2268 58.0213 44.1334 57.8817 44.0697 57.7279C44.0059 57.5742 43.9731 57.4095 43.9731 57.243C43.9731 57.0766 44.0059 56.9119 44.0697 56.7582C44.1334 56.6045 44.2268 56.4648 44.3446 56.3472C44.4623 56.2296 44.6021 56.1364 44.7558 56.0729C44.9096 56.0094 45.0745 55.9768 45.2409 55.977H81.8162C81.9826 55.9768 82.1474 56.0094 82.3012 56.0729C82.455 56.1364 82.5948 56.2296 82.7125 56.3472C82.8302 56.4648 82.9237 56.6045 82.9874 56.7582C83.0511 56.9119 83.0839 57.0766 83.0839 57.243C83.0839 57.4095 83.0511 57.5742 82.9874 57.7279C82.9237 57.8817 82.8302 58.0213 82.7125 58.1389C82.5948 58.2565 82.455 58.3497 82.3012 58.4132C82.1474 58.4768 81.9826 58.5093 81.8162 58.5091Z" fill="#CCCCCC"/>
<path d="M81.8162 67.2309H45.2409C45.0745 67.2312 44.9096 67.1986 44.7558 67.135C44.602 67.0715 44.4623 66.9783 44.3446 66.8607C44.2268 66.7431 44.1334 66.6035 44.0697 66.4497C44.0059 66.296 43.9731 66.1313 43.9731 65.9649C43.9731 65.7985 44.0059 65.6337 44.0697 65.48C44.1334 65.3263 44.2268 65.1866 44.3446 65.069C44.4623 64.9514 44.602 64.8582 44.7558 64.7947C44.9096 64.7312 45.0745 64.6986 45.2409 64.6988H81.8162C82.1519 64.6988 82.474 64.8322 82.7114 65.0696C82.9488 65.3071 83.0822 65.6291 83.0822 65.9649C83.0822 66.3007 82.9488 66.6227 82.7114 66.8601C82.474 67.0976 82.1519 67.2309 81.8162 67.2309Z" fill="#CCCCCC"/>
<path d="M81.816 76.202H45.2407C44.9049 76.202 44.5829 76.0687 44.3454 75.8312C44.108 75.5938 43.9746 75.2718 43.9746 74.936C43.9746 74.6002 44.108 74.2782 44.3454 74.0407C44.5829 73.8033 44.9049 73.6699 45.2407 73.6699H81.816C81.9824 73.6697 82.1472 73.7023 82.301 73.7658C82.4548 73.8293 82.5946 73.9225 82.7123 74.0401C82.8301 74.1577 82.9235 74.2974 82.9872 74.4511C83.0509 74.6048 83.0837 74.7696 83.0837 74.936C83.0837 75.1024 83.0509 75.2671 82.9872 75.4209C82.9235 75.5746 82.8301 75.7142 82.7123 75.8318C82.5946 75.9494 82.4548 76.0426 82.301 76.1061C82.1472 76.1697 81.9824 76.2023 81.816 76.202Z" fill="#CCCCCC"/>
<path d="M93.9635 55.4582C97.9744 55.4582 101.226 52.2067 101.226 48.1959C101.226 44.185 97.9744 40.9335 93.9635 40.9335C89.9526 40.9335 86.7012 44.185 86.7012 48.1959C86.7012 52.2067 89.9526 55.4582 93.9635 55.4582Z" fill="#2B2E32"/>
<path d="M92.9727 51.9756C92.8472 51.9756 92.7235 51.9464 92.6114 51.8903C92.4992 51.8342 92.4017 51.7527 92.3264 51.6524L90.3451 49.0106C90.2815 48.9258 90.2352 48.8292 90.2089 48.7264C90.1825 48.6237 90.1767 48.5167 90.1917 48.4117C90.2067 48.3067 90.2423 48.2056 90.2963 48.1144C90.3504 48.0231 90.4219 47.9433 90.5067 47.8797C90.5916 47.816 90.6882 47.7697 90.791 47.7434C90.8937 47.7171 91.0007 47.7113 91.1057 47.7263C91.2107 47.7413 91.3117 47.7768 91.403 47.8309C91.4943 47.8849 91.5741 47.9564 91.6377 48.0413L92.9339 49.7695L96.2631 44.7757C96.3821 44.5978 96.5669 44.4743 96.7768 44.4324C96.9868 44.3906 97.2047 44.4338 97.3829 44.5525C97.561 44.6713 97.6847 44.8559 97.7268 45.0658C97.7689 45.2757 97.726 45.4937 97.6075 45.672L93.6449 51.6158C93.5732 51.7233 93.4768 51.8121 93.3637 51.8746C93.2507 51.9372 93.1243 51.9717 92.9951 51.9753C92.9876 51.9755 92.9801 51.9756 92.9727 51.9756Z" fill="white"/>
<path d="M112.777 144.202L109.823 145.19L104.605 134.264L108.966 132.805L112.777 144.202Z" fill="#FFB6B6"/>
<path d="M114.489 146.814L104.962 149.362L104.922 149.242C104.59 148.251 104.665 147.829 105.131 146.894C105.359 146.434 105.676 146.024 106.064 145.687C106.451 145.35 106.902 145.093 107.39 144.931L107.39 144.931L108.688 143.029L112.377 143.263L113.209 142.985L114.489 146.814Z" fill="#2F2E41"/>
<path d="M120.078 146.98H116.962L115.48 134.963L120.078 134.963L120.078 146.98Z" fill="#FFB6B6"/>
<path d="M120.872 149.362L110.826 149.362V149.235C110.826 148.19 111.233 147.846 111.972 147.108C112.334 146.744 112.765 146.455 113.239 146.259C113.714 146.062 114.223 145.961 114.737 145.963H114.737L116.572 144.571L119.995 145.963L120.872 145.963L120.872 149.362Z" fill="#2F2E41"/>
<path d="M96.3664 50.6969C96.4306 51.0233 96.5655 51.3317 96.7617 51.6003C96.958 51.8689 97.2107 52.0912 97.5021 52.2516C97.7936 52.412 98.1166 52.5065 98.4486 52.5285C98.7805 52.5505 99.1132 52.4995 99.4233 52.379L103.02 56.1341L105.835 54.5049L100.681 49.2733C100.444 48.7658 100.029 48.3629 99.5153 48.1409C99.0012 47.9188 98.4234 47.8931 97.8916 48.0686C97.3597 48.244 96.9107 48.6085 96.6296 49.0929C96.3485 49.5773 96.2548 50.148 96.3664 50.6969V50.6969Z" fill="#FFB6B6"/>
<path d="M119.644 69.5779L121.265 67.9003L111.888 59.2161L102.451 50.7894L99.8372 54.4828L109.727 63.714L119.644 69.5779Z" fill="#E4E4E4"/>
<path d="M113.882 126.569C113.882 124.46 113.924 122.957 113.958 121.748C114.056 118.212 114.082 117.261 112.729 111.171L112.381 109.608L110.332 115.756C109.677 117.718 109.342 119.772 109.341 121.839L112.501 140.8H106.042L101.312 120.302L101.309 114.031C100.893 113.6 100.66 113.024 100.66 112.424C100.66 111.824 100.893 111.248 101.309 110.817L102.881 101.423L104.472 88.7625H121.896C121.896 88.7625 124.971 95.1363 121.915 101.459L121.915 126.576L120.336 143.944H115.462L113.882 126.569Z" fill="#2F2E41"/>
<path d="M120.831 90.2949L104.533 88.9368L104.448 88.9298L105.749 65.5181C105.825 64.0461 106.342 62.6309 107.231 61.4558C108.121 60.2806 109.343 59.3995 110.739 58.9265V57.2881C110.739 56.8826 110.901 56.4938 111.188 56.2071C111.474 55.9204 111.863 55.7591 112.269 55.7586H114.65C114.934 55.7577 115.213 55.8364 115.455 55.9858C115.697 56.1353 115.892 56.3495 116.018 56.6041L117.182 58.933L121.586 62.4556C123.76 64.1954 122.01 81.6388 121.916 82.5591L122.981 87.884C123.039 88.1769 123.032 88.4791 122.96 88.769C122.888 89.0588 122.752 89.3291 122.563 89.5603C122.374 89.7915 122.136 89.978 121.866 90.1063C121.597 90.2346 121.302 90.3015 121.003 90.3023C120.946 90.3021 120.888 90.2996 120.831 90.2949Z" fill="#E4E4E4"/>
<path d="M103.571 96.4765C103.829 96.2661 104.037 96.0018 104.182 95.7021C104.326 95.4025 104.403 95.0748 104.407 94.7421C104.411 94.4095 104.342 94.08 104.205 93.7769C104.068 93.4738 103.867 93.2044 103.614 92.9877L105.231 88.0458L102.468 86.3306L100.282 93.3416C99.9463 93.7898 99.7864 94.3456 99.8328 94.9037C99.8793 95.4618 100.129 95.9835 100.534 96.3699C100.94 96.7563 101.473 96.9806 102.032 97.0002C102.592 97.0199 103.14 96.8335 103.571 96.4765V96.4765Z" fill="#FFB6B6"/>
<path d="M109.255 62.8803L107.011 62.1324L103.77 76.5912L100.786 90.9704L105.275 91.631L108.756 76.3419L109.255 62.8803Z" fill="#E4E4E4"/>
<path d="M111.705 54.2622C114.661 54.2622 117.058 51.8657 117.058 48.9094C117.058 45.9532 114.661 43.5567 111.705 43.5567C108.749 43.5567 106.352 45.9532 106.352 48.9094C106.352 51.8657 108.749 54.2622 111.705 54.2622Z" fill="#FFB6B6"/>
<path d="M104.503 46.2881C104.552 45.7808 104.698 45.2875 104.931 44.8346C105.182 45.3787 105.962 45.4731 106.496 45.2023C107.031 44.9315 107.389 44.4171 107.77 43.9556C108.778 42.7379 110.163 41.7502 111.733 41.5703C113.303 41.3904 115.034 42.1829 115.627 43.6478C115.893 43.2781 116.461 43.237 116.863 43.4518C117.251 43.6965 117.554 44.0553 117.73 44.479C118.125 45.2898 118.349 46.1735 118.386 47.0746C118.424 47.9758 118.274 48.8749 117.948 49.7157C117.287 51.3888 115.654 53.6429 113.97 54.2743C112.947 54.6577 111.914 54.167 110.826 54.2743C110.883 53.0873 111.113 51.6228 111.17 50.4358C111.202 49.7857 111.206 49.0584 110.762 48.5826C110.626 48.4533 110.463 48.3555 110.285 48.2962C110.107 48.2368 109.918 48.2173 109.731 48.2391C109.545 48.2609 109.365 48.3234 109.205 48.4222C109.046 48.521 108.91 48.6537 108.807 48.8109C108.752 48.4418 108.627 48.0865 108.44 47.764C108.343 47.6041 108.204 47.4742 108.038 47.3891C107.872 47.304 107.685 47.267 107.499 47.2823C107.045 47.3568 106.765 47.8229 106.348 48.0182C106.111 48.113 105.851 48.1333 105.603 48.0763C105.354 48.0193 105.129 47.8878 104.957 47.6992C104.79 47.5067 104.664 47.2825 104.586 47.04C104.508 46.7975 104.48 46.5418 104.503 46.2881V46.2881Z" fill="#2F2E41"/>
<path opacity="0.1" d="M112.398 76.277L106.112 88.8497H110.827L112.398 76.277Z" fill="black"/>
<path d="M154.532 149.747C154.532 149.78 154.525 149.813 154.513 149.844C154.5 149.875 154.481 149.903 154.458 149.926C154.434 149.95 154.406 149.968 154.375 149.981C154.345 149.994 154.312 150 154.278 150H34.2373C34.1701 150 34.1058 149.973 34.0583 149.926C34.0108 149.878 33.9841 149.814 33.9841 149.747C33.9841 149.68 34.0108 149.615 34.0583 149.568C34.1058 149.52 34.1701 149.494 34.2373 149.494H154.278C154.312 149.494 154.345 149.5 154.375 149.513C154.406 149.525 154.434 149.544 154.458 149.568C154.481 149.591 154.5 149.619 154.513 149.65C154.525 149.681 154.532 149.714 154.532 149.747V149.747Z" fill="#CACACA"/>
</g>
<defs>
<clipPath id="clip0_438_417">
<rect width="154.532" height="150" fill="white"/>
</clipPath>
</defs>
</svg>
