<svg width="160" height="150" viewBox="0 0 160 150" fill="none" xmlns="http://www.w3.org/2000/svg">
<g clip-path="url(#clip0_439_636)">
<path d="M115.65 85.119V126.555L122.581 137.851L123.109 138.71H150.457L151.009 85.119H115.65Z" fill="#E6E6E6"/>
<path opacity="0.1" d="M115.65 85.119V126.555L122.581 137.851L123.007 85.119H115.65Z" fill="black"/>
<path d="M49.6278 84.0138V125.45L42.6967 136.746L42.1692 137.605H14.8211L14.2686 84.0138H49.6278Z" fill="#E6E6E6"/>
<path opacity="0.1" d="M49.6279 84.0138V125.45L42.6968 136.746L42.2715 84.0138H49.6279Z" fill="black"/>
<path d="M159.297 83.1853V85.6713H10.6775V82.0801L24.4896 74.8978H147.142L159.297 83.1853Z" fill="#E6E6E6"/>
<path opacity="0.1" d="M159.297 83.1853V85.6713H10.6775V82.0801L159.297 83.1853Z" fill="black"/>
<path d="M31.9483 95.6161H25.3183L22.5559 93.6824H34.9869L31.9483 95.6161Z" fill="#3F3D56"/>
<path d="M31.9483 103.627H25.3183L22.5559 101.694H34.9869L31.9483 103.627Z" fill="#3F3D56"/>
<path d="M31.9483 114.953H25.3183L22.5559 113.019H34.9869L31.9483 114.953Z" fill="#3F3D56"/>
<path d="M31.9483 126.279H25.3183L22.5559 124.346H34.9869L31.9483 126.279Z" fill="#3F3D56"/>
<path d="M133.33 96.721H139.96L142.722 94.7873H130.291L133.33 96.721Z" fill="#3F3D56"/>
<path d="M133.33 104.732H139.96L142.722 102.798H130.291L133.33 104.732Z" fill="#3F3D56"/>
<path d="M133.33 116.058H139.96L142.722 114.125H130.291L133.33 116.058Z" fill="#3F3D56"/>
<path d="M133.33 127.384H139.96L142.722 125.45H130.291L133.33 127.384Z" fill="#3F3D56"/>
<path d="M137.844 26.9806H82.0303C81.7531 26.9806 81.4785 27.0351 81.2224 27.1412C80.9663 27.2473 80.7336 27.4028 80.5376 27.5988C80.3416 27.7948 80.1861 28.0275 80.08 28.2836C79.974 28.5397 79.9194 28.8142 79.9194 29.0914V66.6893C79.9194 66.9665 79.974 67.241 80.08 67.4971C80.1861 67.7533 80.3416 67.986 80.5376 68.182C80.7336 68.378 80.9663 68.5335 81.2224 68.6395C81.4785 68.7456 81.7531 68.8002 82.0303 68.8002H103.218L102.424 73.8681C102.424 73.8681 97.8877 76.2781 101.077 76.3489C104.267 76.4198 119.294 76.3489 119.294 76.3489C119.294 76.3489 122.2 76.3489 117.592 73.7972L116.846 68.8002H137.844C138.122 68.8002 138.396 68.7456 138.652 68.6395C138.908 68.5335 139.141 68.378 139.337 68.182C139.533 67.986 139.689 67.7533 139.795 67.4971C139.901 67.241 139.955 66.9665 139.955 66.6893V29.0914C139.955 28.8142 139.901 28.5397 139.795 28.2836C139.689 28.0275 139.533 27.7948 139.337 27.5988C139.141 27.4028 138.908 27.2473 138.652 27.1412C138.396 27.0351 138.122 26.9806 137.844 26.9806V26.9806Z" fill="#3F3D56"/>
<path d="M137.935 29.2133H81.9395V60.5426H137.935V29.2133Z" fill="#F2F2F2"/>
<path d="M109.937 28.5754C110.133 28.5754 110.292 28.4167 110.292 28.221C110.292 28.0253 110.133 27.8666 109.937 27.8666C109.742 27.8666 109.583 28.0253 109.583 28.221C109.583 28.4167 109.742 28.5754 109.937 28.5754Z" fill="#F2F2F2"/>
<path d="M109.937 67.2762C110.681 67.2762 111.284 66.6733 111.284 65.9295C111.284 65.1857 110.681 64.5828 109.937 64.5828C109.194 64.5828 108.591 65.1857 108.591 65.9295C108.591 66.6733 109.194 67.2762 109.937 67.2762Z" fill="#F2F2F2"/>
<path d="M107.839 80.1765V80.8854H69.7051V80.3182L69.7575 80.1765L70.6973 77.6248H107.059L107.839 80.1765Z" fill="#3F3D56"/>
<path d="M122.514 79.4826C122.444 79.7795 122.182 80.0928 121.59 80.3891C119.463 81.4523 115.139 80.1056 115.139 80.1056C115.139 80.1056 111.808 79.5386 111.808 78.0501C111.902 77.986 111.999 77.928 112.1 77.8764C112.994 77.4034 115.958 76.2363 121.214 77.9258C121.601 78.0474 121.947 78.274 122.213 78.5805C122.331 78.6964 122.42 78.8386 122.472 78.9954C122.524 79.1522 122.539 79.3191 122.514 79.4826Z" fill="#3F3D56"/>
<path opacity="0.1" d="M122.514 79.4826C119.911 80.4799 117.591 80.5543 115.21 78.9006C114.31 78.235 113.22 77.876 112.1 77.8764C112.994 77.4034 115.958 76.2363 121.214 77.9258C121.601 78.0474 121.947 78.274 122.213 78.5805C122.331 78.6964 122.42 78.8386 122.472 78.9954C122.524 79.1522 122.539 79.3192 122.514 79.4826Z" fill="black"/>
<path d="M119.251 78.9006C119.759 78.9006 120.172 78.7737 120.172 78.6171C120.172 78.4605 119.759 78.3336 119.251 78.3336C118.742 78.3336 118.329 78.4605 118.329 78.6171C118.329 78.7737 118.742 78.9006 119.251 78.9006Z" fill="#F2F2F2"/>
<path opacity="0.1" d="M107.839 80.1765V80.8854H69.7051V80.3183L69.7575 80.1765H107.839Z" fill="black"/>
<path d="M21.2029 3.32801e-05C20.8158 -0.0317424 20.4283 0.0548296 20.0916 0.248278C19.761 0.474683 19.5526 0.871323 19.3399 1.24042C18.5267 2.66847 17.4258 3.91207 16.1069 4.89244C15.1462 5.59621 13.9248 6.47371 14.0892 7.77127C14.1759 8.19978 14.3342 8.61062 14.5575 8.98651C15.4437 10.7755 17.8621 12.158 17.6242 14.1994C18.5047 12.7253 17.327 11.9965 18.2075 10.5224C18.6268 9.82047 19.3552 9.02807 19.9883 9.46891C20.2002 9.61652 20.3394 9.88126 20.5601 10.0108C21.0868 10.3198 21.6471 9.729 22.1132 9.31052C23.7207 7.86746 26.0068 8.24551 28.0072 8.69513C28.9516 8.9074 29.9889 9.18589 30.5471 10.0885C31.2811 11.2752 29.8498 12.5569 29.4881 13.8986C29.4586 14.0129 29.4572 14.1327 29.484 14.2477C29.5109 14.3627 29.5652 14.4694 29.6423 14.5589C29.7194 14.6483 29.817 14.7177 29.9268 14.7612C30.0366 14.8046 30.1553 14.8209 30.2727 14.8085C30.8729 14.7493 31.584 14.7007 31.6195 14.4373C32.3747 14.4642 33.3 14.3787 33.6236 13.5924C33.7225 13.2812 33.7747 12.9572 33.7787 12.6307C33.8974 11.3098 34.4581 10.1048 34.8294 8.84761C35.2008 7.59044 35.3623 6.11711 34.7356 5.00248C34.5119 4.63163 34.2353 4.29542 33.9144 4.00449C30.3578 0.562545 25.6815 -0.00507586 21.2029 3.32801e-05Z" fill="#2F2E41"/>
<path d="M18.3978 16.7778C18.3978 16.7778 19.1713 23.2237 16.3351 23.7394C13.4988 24.2551 18.9135 33.0216 18.9135 33.0216L31.8054 34.5687L28.7114 24.2551C28.7114 24.2551 26.6486 23.4816 27.9378 18.3248C29.227 13.168 18.3978 16.7778 18.3978 16.7778Z" fill="#FFB8B8"/>
<path d="M10.5337 127.52L11.5652 141.701H16.9796L15.4327 127.52H10.5337Z" fill="#FFB8B8"/>
<path d="M50.241 100.704L51.0144 112.565L56.9449 109.987L54.6242 100.189L50.241 100.704Z" fill="#FFB8B8"/>
<path d="M6.66602 73.3735C6.66602 73.3735 6.92385 88.3281 8.4709 93.2271C10.0179 98.126 9.76009 98.3839 9.50225 99.1574C9.24442 99.9309 8.98658 99.4152 8.98658 100.704C8.98658 101.994 8.4709 122.363 8.98658 124.168C9.50225 125.973 7.43954 129.067 8.98658 129.325C10.5336 129.582 17.7531 129.325 18.0109 127.778C18.2688 126.23 15.9482 125.715 16.9796 124.683C18.0109 123.652 19.558 102.509 19.558 102.509L23.1677 87.8125L29.8715 80.0773H44.0527L48.436 97.0947C48.436 97.0947 46.6311 101.994 47.9203 101.994C49.2095 101.994 56.9446 103.541 56.9446 97.8682C56.9446 92.1957 54.3663 75.4362 53.8506 74.9205C53.3349 74.4048 54.1084 72.5999 53.3349 71.8264C52.5614 71.0529 43.537 65.6383 40.1851 64.6069C36.8332 63.5756 32.131 62.3481 32.131 62.3481L6.66602 73.3735Z" fill="#2F2E41"/>
<path d="M56.9448 107.924C56.9448 107.924 53.0772 106.635 51.2723 110.502C49.4674 114.37 50.241 115.401 50.241 115.401C50.241 115.401 56.1712 117.464 57.2026 116.433C57.6513 115.984 59.0762 115.828 60.5428 115.795C62.7766 115.745 63.371 112.585 61.2613 111.849C61.1983 111.827 61.1346 111.808 61.0702 111.792C59.0075 111.276 56.9448 107.924 56.9448 107.924Z" fill="#2F2E41"/>
<path d="M24.199 21.0321C28.4711 21.0321 31.9342 17.569 31.9342 13.2969C31.9342 9.02492 28.4711 5.56176 24.199 5.56176C19.927 5.56176 16.4639 9.02492 16.4639 13.2969C16.4639 17.569 19.927 21.0321 24.199 21.0321Z" fill="#FFB8B8"/>
<path d="M14.1435 26.9624C14.1435 26.9624 26.7776 29.5408 29.8717 25.4154C32.9658 21.2899 34.2549 37.0181 34.2549 37.0181L35.802 53.5198L33.4814 62.5442C33.4814 62.5442 21.363 72.3421 17.4954 73.1156C13.6278 73.8891 7.69751 74.4048 7.69751 74.4048C7.69751 74.4048 9.5024 45.7847 9.5024 45.269C9.5024 44.7533 14.1435 26.9624 14.1435 26.9624Z" fill="#C1C3C7"/>
<path d="M17.9858 22.1267C17.9858 22.1267 15.1748 20.5164 14.4013 22.0635C13.6278 23.6105 6.4083 27.4781 5.63479 27.4781C4.86127 27.4781 7.18182 48.8787 6.15047 51.4571C5.11911 54.0355 0.220167 72.8578 3.0564 74.4048C5.89263 75.9519 3.82991 72.8578 6.66615 76.7254C9.50238 80.593 23.4257 80.593 24.1992 79.0459C24.9727 77.4989 18.0111 65.8961 19.3003 55.0669C20.5895 44.2377 22.6522 29.283 20.8473 27.2203C19.0424 25.1575 17.9858 22.1267 17.9858 22.1267Z" fill="#2F2E41"/>
<path d="M27.2932 23.8683L27.6524 22.6324C27.6524 22.6324 38.3803 26.1889 38.896 28.5095C39.4117 30.83 39.1538 47.0739 37.3489 48.3631C35.5441 49.6523 32.9657 51.715 34.7706 54.8091C36.5754 57.9031 38.6381 61.255 40.1852 61.5129C41.7322 61.7707 44.5684 63.5756 43.7949 65.3805C43.0214 67.1853 33.7392 63.8334 33.7392 63.8334C33.7392 63.8334 27.5511 59.1923 27.8089 51.9728C28.0667 44.7533 27.2932 23.8683 27.2932 23.8683Z" fill="#2F2E41"/>
<path d="M36.3175 54.2934L30.1293 65.8961C30.1293 65.8961 21.105 75.1783 26.2618 76.2097C31.4186 77.2411 34.2548 67.701 34.2548 67.701L40.9586 58.161L36.3175 54.2934Z" fill="#FFB8B8"/>
<path d="M21.5796 2.02393C21.2678 2.00082 20.9555 2.0614 20.675 2.19939C20.4214 2.38464 20.2123 2.62422 20.0631 2.90062C19.3754 3.93512 18.4789 4.81435 17.4313 5.48185C16.6492 5.97927 15.655 6.59948 15.7888 7.51659C15.8614 7.82408 15.9907 8.11535 16.17 8.37551C16.8939 9.65273 17.1821 11.131 16.9909 12.5866L19.1412 9.4611C19.4826 8.96495 20.0755 8.40489 20.5909 8.71647C20.7635 8.8208 20.8768 9.00792 21.0564 9.09946C21.4851 9.31789 21.9412 8.90031 22.3207 8.60452C23.6293 7.58457 25.4902 7.85178 27.1186 8.16957C27.8874 8.3196 28.7318 8.51643 29.1863 9.15438C29.9415 10.2145 29.1529 11.7464 29.5936 12.9711C29.717 12.8847 29.8218 12.7745 29.9018 12.6468C29.9818 12.5192 30.0353 12.3768 30.0592 12.2281C30.674 12.2471 31.4272 12.1867 31.6906 11.6309C31.7707 11.4131 31.8134 11.1833 31.8169 10.9512C31.9136 10.0176 32.3699 9.1659 32.6722 8.27734C32.9746 7.38877 33.106 6.34743 32.5958 5.55962C32.4092 5.29269 32.1839 5.05497 31.9274 4.85425C29.0321 2.4215 25.2254 2.02032 21.5796 2.02393Z" fill="#2F2E41"/>
<path d="M36.3176 27.4781L38.7199 28.1157C38.7199 28.1157 44.3106 42.4328 43.0214 52.2307C41.7322 62.0286 40.9587 59.9658 40.9587 59.9658C40.9587 59.9658 38.896 55.3247 34.2549 56.3561L36.3176 27.4781Z" fill="#2F2E41"/>
<path d="M10.891 139.827C10.2692 140.672 10.3939 141.879 9.8431 142.772C9.36569 143.546 8.46595 143.952 7.8688 144.638C7.67825 144.866 7.50839 145.11 7.36121 145.368C6.80727 146.296 6.35701 147.485 6.90258 148.418C7.34145 149.168 8.26393 149.462 9.10996 149.661C10.1793 149.914 11.2903 150.116 12.372 149.923C13.4537 149.73 14.5108 149.068 14.8965 148.039C14.9723 147.78 15.0624 147.526 15.1664 147.277C15.7527 146.123 17.5916 146.111 18.1916 144.963C18.6115 144.161 18.2255 143.19 17.8397 142.371L16.6613 139.867C16.2702 139.036 14.6849 139.514 13.8585 139.315C12.7806 139.055 11.6664 138.769 10.891 139.827Z" fill="#2F2E41"/>
<path d="M2.28271 59.4502L13.112 76.2097C13.112 76.2097 19.8158 84.7184 21.8785 80.8508C23.9412 76.9832 14.659 70.5372 14.659 70.5372L7.69733 57.6453L2.28271 59.4502Z" fill="#FFB8B8"/>
<path d="M7.69742 27.9938L5.63471 27.4781C5.63471 27.4781 1.50928 28.7673 0.477926 34.1819C-0.55343 39.5965 0.220085 61.255 1.50928 61.5129C2.79848 61.7707 7.87661 57.7417 8.68945 58.5959C9.5023 59.4502 6.9239 55.0669 7.69741 52.7463C8.47092 50.4258 7.69742 27.9938 7.69742 27.9938Z" fill="#2F2E41"/>
<path d="M104.637 39.5029H97.9734V41.1072H104.637V39.5029Z" fill="#C1C3C7"/>
<path d="M127.715 39.5029H125.37V41.1072H127.715V39.5029Z" fill="#C1C3C7"/>
<path d="M132.405 39.5029H130.06V41.1072H132.405V39.5029Z" fill="#C1C3C7"/>
<path d="M122.902 39.5029H106.982V41.1072H122.902V39.5029Z" fill="#C1C3C7"/>
<path d="M96.2457 49.8693H89.5815V51.4737H96.2457V49.8693Z" fill="#C1C3C7"/>
<path d="M119.323 49.8693H116.979V51.4737H119.323V49.8693Z" fill="#C1C3C7"/>
<path d="M124.013 49.8693H121.668V51.4737H124.013V49.8693Z" fill="#C1C3C7"/>
<path d="M114.51 49.8693H98.5906V51.4737H114.51V49.8693Z" fill="#C1C3C7"/>
<path d="M123.766 43.0818H117.102V44.6861H123.766V43.0818Z" fill="#C1C3C7"/>
<path d="M132.775 43.0818H126.111V44.6861H132.775V43.0818Z" fill="#C1C3C7"/>
<path d="M91.9263 43.0818H89.5815V44.6861H91.9263V43.0818Z" fill="#C1C3C7"/>
<path d="M96.616 43.0818H94.2712V44.6861H96.616V43.0818Z" fill="#C1C3C7"/>
<path d="M114.881 43.0818H98.9607V44.6861H114.881V43.0818Z" fill="#C1C3C7"/>
<path d="M109.944 46.5373H103.28V48.1416H109.944V46.5373Z" fill="#C1C3C7"/>
<path d="M100.935 46.5373H94.2712V48.1416H100.935V46.5373Z" fill="#C1C3C7"/>
<path d="M91.9263 46.5373H89.5815V48.1416H91.9263V46.5373Z" fill="#C1C3C7"/>
<path d="M132.775 46.5373H130.43V48.1416H132.775V46.5373Z" fill="#C1C3C7"/>
<path d="M128.085 46.5373H112.166V48.1416H128.085V46.5373Z" fill="#C1C3C7"/>
</g>
<defs>
<clipPath id="clip0_439_636">
<rect width="159.297" height="150" fill="white"/>
</clipPath>
</defs>
</svg>
